<svg width="166" height="48" viewBox="0 0 166 48" fill="none" xmlns="http://www.w3.org/2000/svg">
<path d="M18.0632 46.8376L0 15.5574L7.89494 1.90877L8.55549 1.01156L9.23923 0.473019L10.0474 0.150024L10.5022 0.0685033L45.0942 0.00926781L18.0632 46.8376Z" fill="#5C93FF"/>
<path d="M75.1924 47.3159L41.3379 47.3074L40.6003 47.2655L39.7251 47.0493L38.9805 46.6196L38.355 45.9693L30.0942 31.7793L48.1494 0.494507L75.1924 47.3159Z" fill="white"/>
<path d="M78.2555 46.8283L60.1924 15.5481L68.0873 1.8995L68.7479 1.00229L69.4316 0.463746L70.2398 0.140754L70.6945 0.0592326L105.287 0L78.2555 46.8283Z" fill="white"/>
<path d="M135.381 47.3146L101.526 47.2975L100.789 47.2554L99.9136 47.039L99.1691 46.6091L98.5437 45.9587L90.2866 31.7665L108.35 0.486328L135.381 47.3146Z" fill="white"/>
<path d="M138.436 46.8294L120.381 15.5447L128.279 1.89804L128.94 1.001L129.624 0.462632L130.432 0.139845L130.887 0.0584387L165.479 0.00799561L138.436 46.8294Z" fill="white"/>
</svg>
